<svg width="26" height="26" viewBox="0 0 26 26" fill="none" xmlns="http://www.w3.org/2000/svg">
<path d="M3.64987 14.3804V18.7313C3.64987 19.173 3.82062 19.5558 4.16213 19.8798C4.50364 20.2037 4.83803 20.4025 5.16531 20.4761V20.962L2.7961 22C2.48305 21.8675 2.19134 21.6466 1.92098 21.3374C1.65062 21.0429 1.51544 20.7632 1.51544 20.4982V15.1313C1.51544 14.6896 1.34469 14.3067 1.00318 13.9828C0.661672 13.6589 0.327279 13.4601 0 13.3865V12.9006C0.327279 12.827 0.661672 12.6282 1.00318 12.3043C1.34469 11.9804 1.51544 11.5975 1.51544 11.1558V5.50184C1.51544 5.23681 1.62216 4.97914 1.83561 4.72883C2.04905 4.47853 2.26249 4.29448 2.47593 4.17669L2.7961 4L5.16531 5.03804V5.52393C4.83803 5.59755 4.50364 5.79632 4.16213 6.12025C3.82062 6.44417 3.64987 6.82699 3.64987 7.26871V11.8847C3.64987 12.3117 3.36528 12.7313 2.7961 13.1436C3.36528 13.5558 3.64987 13.9681 3.64987 14.3804Z" fill="#B05279"/>
<path d="M6.29733 19.254V10.519C6.29733 9.95215 6.18113 9.46258 5.94871 9.05031C5.7163 8.63804 5.42578 8.4319 5.07715 8.4319V7.86503C5.19336 7.84785 6.09812 7.32393 7.79143 6.29325C7.90764 6.32761 8.04875 6.37914 8.21476 6.44785C8.38077 6.49939 8.59658 6.66258 8.8622 6.93742C9.14442 7.21227 9.28553 7.53006 9.28553 7.8908C9.38514 7.83926 9.66736 7.67607 10.1322 7.40123C11.3607 6.67975 12.116 6.31902 12.3982 6.31902C12.6971 6.31902 13.0208 6.47362 13.3694 6.78282C13.7346 7.09202 14.0085 7.46135 14.1912 7.8908C14.2244 7.87362 14.5647 7.69325 15.2121 7.34969C16.507 6.66258 17.2873 6.31902 17.5529 6.31902C18.0841 6.31902 18.5821 6.67975 19.047 7.40123C19.5118 8.1227 19.7442 8.78405 19.7442 9.38528V17.1926C19.7442 18.1374 20.1509 18.6957 20.9644 18.8675V19.4344L18.2501 21.0061C17.8849 20.8515 17.5446 20.6025 17.2292 20.2589C16.9137 19.8982 16.756 19.5632 16.756 19.254V11.6528C16.756 10.5362 16.6149 9.79755 16.3327 9.43681C16.0505 9.0589 15.6853 8.86994 15.237 8.86994L14.5149 9.02454V17.1926C14.5149 18.1374 14.9216 18.6957 15.7351 18.8675V19.4344L13.0208 21.0061C12.6556 20.8515 12.3152 20.6025 11.9998 20.2589C11.6844 19.8982 11.5267 19.5632 11.5267 19.254V11.7816C11.5267 9.80613 11.0701 8.81841 10.1571 8.81841L9.28553 8.97301V17.1926C9.28553 18.2405 9.62585 18.8331 10.3065 18.9706V19.5374L7.79143 21.0061C7.42621 20.8515 7.08589 20.6025 6.77047 20.2589C6.45504 19.8982 6.29733 19.5632 6.29733 19.254Z" fill="#E5B567"/>
<path d="M22.3501 18.7313V14.3804C22.3501 13.9681 22.6347 13.5558 23.2039 13.1436C22.6347 12.7313 22.3501 12.3117 22.3501 11.8847V7.26871C22.3501 6.82699 22.1794 6.44417 21.8379 6.12025C21.4964 5.79632 21.162 5.59755 20.8347 5.52393V5.03804L23.2039 4C23.517 4.13252 23.8087 4.35337 24.079 4.66258C24.3494 4.95706 24.4846 5.23681 24.4846 5.50184V11.1558C24.4846 11.5975 24.6553 11.9804 24.9968 12.3043C25.3383 12.6282 25.6727 12.827 26 12.9006V13.3865C25.6727 13.4601 25.3383 13.6589 24.9968 13.9828C24.6553 14.3067 24.4846 14.6896 24.4846 15.1313V20.4982C24.4846 20.7632 24.3778 21.0209 24.1644 21.2712C23.951 21.5215 23.7375 21.7055 23.5241 21.8233L23.2039 22L20.8347 20.962V20.4761C21.162 20.4025 21.4964 20.2037 21.8379 19.8798C22.1794 19.5558 22.3501 19.173 22.3501 18.7313Z" fill="#B05279"/>
</svg>
